<svg stroke-linejoin="round" viewBox="0 0 970 847" version="1.1" xmlns:xlink="http://www.w3.org/1999/xlink" xmlns="http://www.w3.org/2000/svg"  stroke-linecap="square" font-size="18px">
<style>text {line-height:125%;text-anchor:middle;text-align:center;font-family:Arial,Sans-serif;}</style>
<g id="a">
<g stroke-width="2">
<path stroke="#6fa8dc" fill="#fff" d="m1.0038 69.2c0-37.632 30.507-68.138 68.138-68.138h830.69c18.071 0 35.402 7.1788 48.181 19.957 12.778 12.778 19.957 30.109 19.957 48.181v272.54c0 37.631-30.506 68.138-68.138 68.138h-830.68c-37.631 0-68.138-30.506-68.138-68.138z"/>
<path stroke="#000" d="m537.43 355.41-4.6239-7.6975"/>
<path stroke="#000" fill="#000" d="m535.64 346.02-7.5055-6.0793 1.8419 9.4814z"/>
</g>
<g fill="#a4c639" transform="translate(.1875 1.0625)">
<path fill="#cfe2f3" d="m787.22 158.89h49.453v79.091h-49.45z"/>
<path fill="#a5b4c2" d="m836.67 158.89 22.74-22.74v79.091l-22.74 22.74z"/>
<path fill="#d8e7f5" d="m787.22 158.89 22.74-22.74h49.452l-22.74 22.74z"/>
<g transform="matrix(.43671 0 0 .43671 176.72 89.35)">
<g id="e" transform="translate(-387.91 43.178)" stroke="#fff" stroke-width="7.168" fill="#a4c639">
 <rect ry="5.072" rx="5.072" transform="rotate(28.75)" height="43" width="10.144" y="-94" x="177.62"/>
 <ellipse d="M 238.17,109.9 C 238.17,156.2643 197.1727,193.85 146.6,193.85 96.02729,193.85 55.03001,156.2643 55.03001,109.9 55.03001,63.5357 96.02729,25.95 146.6,25.95 197.1727,25.95 238.17,63.5357 238.17,109.9 z" stroke-opacity="0" rx="91.57" ry="83.95" cy="109.9" cx="146.6"/>
 <rect id="d" rx="23.92" ry="23.92" height="132.9" width="47.84" y="109.6" x="3.569"/>
 <use xlink:href="#d" height="343" width="294" y="96.97" x="85.026"/>
 <rect stroke-opacity="0" rx="22.12" ry="22.12" height="181.8" width="183.2" y="89.1" x="54.99"/>
 <line x2="245" y1="113.5" x1="48" y2="113.5"/>
</g>
<use xlink:href="#e" transform="matrix(-1 0 0 1 -482.72 8.361e-7)" height="343" width="294" y="0" x="0"/>
<circle d="M 195.91,69.077 C 195.91,73.31303 192.476,76.747 188.24,76.747 184.004,76.747 180.57,73.31303 180.57,69.077 180.57,64.84098 184.004,61.407 188.24,61.407 192.476,61.407 195.91,64.84098 195.91,69.077 z" cx="188.24" transform="translate(-387.91 43.178)" cy="69.077" r="7.67" fill="#fff"/>
<circle d="M 112.55,69.077 C 112.55,73.31303 109.116,76.747 104.88,76.747 100.644,76.747 97.21,73.31303 97.21,69.077 97.21,64.84098 100.644,61.407 104.88,61.407 109.116,61.407 112.55,64.84098 112.55,69.077 z" cx="104.88" transform="translate(-387.91 43.178)" cy="69.077" r="7.67" fill="#fff"/>
<g transform="matrix(.26 0 0 .26 -322.61 62.331)">
 <path d="m72.5 587.5c-16.569 0-30-13.43-30-30s13.431-30 30-30h30v60" stroke="#06a" stroke-width="15" fill="none"/>
 <path d="m132.5 587.5v-30c0-16.57 13.43-30 30-30s30 13.43 30 30v30" stroke="#06a" stroke-width="15" fill="none"/>
 <path d="m222.5 587.5h30c16.57 0 30-13.43 30-30s-13.43-30-30-30h-30" stroke="#06a" stroke-width="15" fill="none"/>
 <path d="m312.5 565h41.25c10.35 0 18.75-8.39 18.75-18.75 0-10.35-8.4-18.75-18.75-18.75h-41.25m60 60c0-12.42-10.07-22.5-22.5-22.5" stroke="#06a" stroke-width="15" fill="none"/>
 <path d="m432.5 527.5c16.57 0 30 13.43 30 30s-13.43 30-30 30-30-13.43-30-30 13.43-30 30-30z" stroke="#06a" stroke-width="15" fill="none"/>
 <path d="m492.5 587.5v-60" stroke="#06a" stroke-width="15" fill="none"/>
 <path d="m522.5 587.5h30c16.57 0 30-13.43 30-30s-13.43-30-30-30h-30" stroke="#06a" stroke-width="15" fill="none"/>
</g>
<g transform="matrix(.26 0 0 .26 -283.61 100.12)">
 <path d="m72.5 587.5c-16.569 0-30-13.43-30-30s13.431-30 30-30h30v60" stroke="#06a" stroke-width="15" fill="none"/>
 <path d="m222.51 587.5v-22.5h41.24c10.35 0 18.75-8.39 18.75-18.75 0-10.35-8.4-18.75-18.75-18.75h-41.25" stroke="#06a" stroke-width="15" fill="none"/>
 <path d="m132.51 587.5v-22.5h41.24c10.35 0 18.75-8.39 18.75-18.75 0-10.35-8.4-18.75-18.75-18.75h-41.25" stroke="#06a" stroke-width="15" fill="none"/>
</g>
</g>
</g>
<path stroke="#ccc" stroke-width="2" fill="none" d="m787.41 159.95 22.74-22.74h49.452v79.091l-22.74 22.74h-49.453zh49.453l22.74-22.74m-22.74 22.74v79.091"/>
<g transform="translate(.1875 1.0625)">
<path fill="#cfe2f3" d="m836.28 104.04h57.848v133.95h-57.85z"/>
<path fill="#a5b4c2" d="m894.13 104.04 19.283-19.283v133.95l-19.28 19.28z"/>
<path fill="#d8e7f5" d="m836.28 104.04 19.283-19.283h57.848l-19.283 19.283z"/>
</g>
<path stroke="#ccc" stroke-width="2" fill="none" d="m836.47 105.1 19.283-19.283h57.848v133.95l-19.28 19.28h-57.85zh57.848l19.28-19.283m-19.28 19.283v133.95"/>
<g transform="translate(.1875 1.0625)">
<path fill="#cfe2f3" d="m893.32 183.66h44.491v54.326h-44.49z"/>
<path fill="#a5b4c2" d="m937.81 183.66 22.74-22.741v54.326l-22.74 22.741z"/>
<path fill="#d8e7f5" d="m893.32 183.66 22.741-22.741h44.491l-22.74 22.741z"/>
</g>
<path stroke="#ccc" stroke-width="2" fill="none" d="m893.51 184.72 22.741-22.741h44.491v54.326l-22.74 22.741h-44.491zh44.491l22.74-22.741m-22.74 22.741v54.326"/>
<g fill="#fff" transform="translate(.1875 1.0625)">
<path d="m841.51 107.46h9.6174v4.8256h-9.62z"/>
<path d="m854.15 107.46h9.6175v4.8256h-9.62z"/>
<path d="m866.79 107.46h9.6174v4.8256h-9.62z"/>
<path d="m879.42 107.46h9.6174v4.8256h-9.62z"/>
<path d="m841.51 117.42h9.6174v4.8256h-9.62z"/>
<path d="m854.15 117.42h9.6175v4.8256h-9.62z"/>
<path d="m866.79 117.42h9.6174v4.8256h-9.62z"/>
<path d="m879.42 117.42h9.6174v4.8256h-9.62z"/>
<path d="m841.51 128.37h9.6174v4.8256h-9.62z"/>
<path d="m854.15 128.37h9.6175v4.8256h-9.62z"/>
<path d="m866.79 128.37h9.6174v4.8256h-9.62z"/>
<path d="m879.42 128.37h9.6174v4.8256h-9.62z"/>
<path d="m841.51 138.33h9.6174v4.8256h-9.62z"/>
<path d="m854.15 138.33h9.6175v4.8256h-9.62z"/>
<path d="m866.79 138.33h9.6174v4.8256h-9.62z"/>
<path d="m879.42 138.33h9.6174v4.8256h-9.62z"/>
<path d="m841.51 148.79h9.6174v4.8256h-9.62z"/>
<path d="m854.15 148.79h9.6175v4.8256h-9.62z"/>
<path d="m866.79 148.79h9.6174v4.8256h-9.62z"/>
<path d="m879.42 148.79h9.6174v4.8256h-9.62z"/>
<path d="m841.51 158.75h9.6174v4.8256h-9.62z"/>
<path d="m854.15 158.75h9.6175v4.8256h-9.62z"/>
<path d="m866.79 158.75h9.6174v4.8256h-9.62z"/>
<path d="m879.42 158.75h9.6174v4.8256h-9.62z"/>
<path d="m841.51 169.69h9.6174v4.8256h-9.62z"/>
<path d="m854.15 169.69h9.6175v4.8256h-9.62z"/>
<path d="m866.79 169.69h9.6174v4.8256h-9.62z"/>
<path d="m879.42 169.69h9.6174v4.8256h-9.62z"/>
<path d="m841.51 179.66h9.6174v4.8256h-9.62z"/>
<path d="m854.15 179.66h9.6175v4.8256h-9.62z"/>
<path d="m866.79 179.66h9.6174v4.8256h-9.62z"/>
<path d="m879.42 179.66h9.6174v4.8256h-9.62z"/>
<path d="m791.07 163.61h8.5646v4.2973h-8.56z"/>
<path d="m802.32 163.61h8.5645v4.2973h-8.56z"/>
<path d="m813.58 163.61h8.5645v4.2973h-8.56z"/>
<path d="m824.83 163.61h8.5646v4.2973h-8.56z"/>
<path d="m791.07 172.49h8.5646v4.2972h-8.56z"/>
<path d="m802.32 172.49h8.5645v4.2972h-8.56z"/>
<path d="m813.58 172.49h8.5645v4.2972h-8.56z"/>
<path d="m824.83 172.49h8.5646v4.2972h-8.56z"/>
<path d="m791.07 182.23h8.5646v4.2972h-8.56z"/>
<path d="m802.32 182.23h8.5645v4.2972h-8.56z"/>
<path d="m813.58 182.23h8.5645v4.2972h-8.56z"/>
<path d="m824.83 182.23h8.5646v4.2972h-8.56z"/>
<path d="m791.07 191.11h8.5646v4.2973h-8.56z"/>
<path d="m802.32 191.11h8.5645v4.2973h-8.56z"/>
<path d="m813.58 191.11h8.5645v4.2973h-8.56z"/>
<path d="m824.83 191.11h8.5646v4.2973h-8.56z"/>
<path d="m896.93 186.26h7.5691v3.7978h-7.57z"/>
<path d="m906.88 186.26h7.569v3.7978h-7.569z"/>
<path d="m916.82 186.26h7.569v3.7978h-7.569z"/>
<path d="m926.77 186.26h7.5691v3.7978h-7.57z"/>
<path d="m896.93 194.11h7.5691v3.7978h-7.57z"/>
<path d="m906.88 194.11h7.569v3.7978h-7.569z"/>
<path d="m916.82 194.11h7.569v3.7978h-7.569z"/>
<path d="m926.77 194.11h7.5691v3.7978h-7.57z"/>
<path d="m896.93 202.72h7.5691v3.7978h-7.57z"/>
<path d="m906.88 202.72h7.569v3.7978h-7.569z"/>
<path d="m916.82 202.72h7.569v3.7978h-7.569z"/>
<path d="m926.77 202.72h7.5691v3.7978h-7.57z"/>
</g>
<g fill="#c27ba0">
<path d="m134.34 134.93h243.7v-2.9685l5.937 5.937-5.937 5.937v-2.9685h-243.7z"/>
<path d="m526.63 134.93h243.7v-2.9685l5.937 5.937-5.937 5.937v-2.9685h-243.7z"/>
<path d="m776.27 223.45h-243.7v-2.9685l-5.937 5.937 5.937 5.937v-2.9685h243.7z"/>
<path d="m383.98 223.45h-243.7v-2.9685l-5.937 5.937 5.937 5.937v-2.9685h243.7z"/>
<text y="219.15077" x="259.15961" fill="#c27ba0"><tspan y="219.15077" x="259.15961">Here is the</tspan></text>
<text y="219.15077" x="651.70349" fill="#c27ba0"><tspan y="219.15077" x="651.70349">Here you</tspan><tspan y="241.65077" x="651.70349">go</tspan></text>
<text y="257.6517" x="854.99115" fill="#6fa8dc"><tspan x="857.48724" y="257.6517">Google – </tspan><tspan x="854.99115" y="280.1517">The Identity Provider</tspan></text>
</g>
<g stroke-width="3" fill="none" transform="translate(8)">
<g transform="translate(.1875 1.0625)">
<path stroke="#ac8b63" d="m401.73 160.97c0.061 17.938-3.9607 36.193 0.4503 53.899 4.3294 10.334 16.198 16.096 27.068 15.488 13.973-0.2859 29.026-3.0083 39.771-12.599 7.4191-7.017 8.9122-17.778 11.256-27.229 1.8984-9.7548 2.5683-19.686 3.5562-29.558"/>
<path fill="#444" d="m412.06 174.31c-0.8592 0.035-1.3636 0.8482-1.7187 1.5313-0.3742-0.1773-0.8634-0.7595-1.0068-0.069-1.1706 2.2483-1.3306 4.8764-1.0847 7.3579 0.1714 1.553 0.6538 3.2302 1.9591 4.2103 0.7638 0.5861 1.9117 0.9245 2.7785 0.3675 0.4416-0.3662 0.4926-0.9768 0.6893-1.4787 0.7181-0.088 1.5486-0.3017 1.8802-1.0212 0.7597-1.2941 0.5332-2.8772 0.1834-4.2619-0.1265-0.653-0.5433-1.2272-0.5583-1.8982-0.1188-0.9684-0.5281-1.9341-1.2774-2.5813-0.1932-0.743-0.3318-1.6905-1.1323-2.0256-0.222-0.1011-0.469-0.1454-0.7123-0.1312z"/>
<path fill="#444" d="m459.84 177.88c-0.9397 0.156-1.4261 1.083-1.84 1.8411-0.6331 1.262-0.5498 2.7004-0.7477 4.0617-0.1331 0.9667-0.3721 1.9193-0.4074 2.8989-0.044 1.1028-0.01 2.2801 0.5439 3.2651 0.5768 1.0078 1.7862 1.6447 2.944 1.3919 0.9364-0.1778 1.8158-0.6847 2.4621-1.3777 0.9142-1.2693 1.1292-2.8734 1.2695-4.3905 0.053-1.2043 0.1905-2.4771-0.3617-3.5981-0.2769-0.6234-0.3532-1.3201-0.6584-1.9276-0.5862-1.0764-1.6297-1.9516-2.8521-2.1733-0.1164-0.011-0.2413-0.012-0.3522 0.01z"/>
<path stroke="#783f04" d="m423.31 211.16c3.3083 7.5506 15.282 7.4638 16.725-1.6333"/>
</g>
<path stroke="#ac8b63" d="m401.3 183.32c-3.9918 2.2876-9.4527 5.1035-8.3608 10.46s3.5642 7.5064 7.7527 8.3752"/>
<path stroke="#ac8b63" d="m481.57 189.4c3.4422 2.7652 7.3122 8.3443 3.0364 12.162-1.6083 2.0341-4.0097 3.6493-6.6809 3.6487"/>
<g stroke="#5f2401" transform="translate(.1875 1.0625)">
<path d="m422.67 154.28-1.7952 10.961"/>
<path d="m459.49 152.46c3.0564 4.2099 5.3389 8.7833 6.0788 13.984"/>
<path d="m471.05 154.89c1.2179 2.8346 2.4357 5.6693 3.6535 8.5039"/>
<path d="m449.16 154.28c1.2179 3.0446 2.4357 6.0893 3.6536 9.1339"/>
<path d="m414.19 149.12c-3.8219 3.2425-6.2228 7.7955-7.1706 12.707-0.3823 1.6492-0.8188 3.2861-1.3334 4.8992"/>
<path d="m391.3 183.49c-0.1543-17.325 1.9475-36.015 13.252-49.938 5.4125-6.5995 14.736-12.113 23.344-8.6539 5.1249 2.0017 8.8502 6.3142 13.546 8.9745 4.8334-1.8682 9.9559-3.3173 15.308-2.6879 14.843 0.8381 30.376 9.4913 35.036 24.311 4.0319 12.194 1.2758 26.103-6.012 36.511"/>
<path d="m443.08 131.78c0.6594-3.3923 0.2871-7.236 1.7952-10.331"/>
<path d="m444.29 130.58c2.555-2.5136 4.8511-5.367 7.9055-7.3071"/>
</g>
</g>
</g>
<use xlink:href="#a" transform="translate(0,435.62)" height="847" width="970" y="0" x="0"/>
<use xlink:href="#b" transform="translate(381.3)" height="847" width="970" stroke="#000" y="0" x="0" stroke-width="2"/>
<path id="b" stroke="#000" stroke-width="2" fill="#cfe2f3" d="m274.16 695.19c-3.46-0.01-7.04 0.49-9.94 2.4-3.87 2.55 0.17 10.73-9.91 13.03-10.08 2.31-41.28-0.43-50.56 0.76-9.28 1.18-5.35 4.47-5.13 6.34 0.23 1.86 3.94 4.41 6.5 4.84 2.57 0.44 6.26-2.78 8.88-2.22s4.96 5.54 6.84 5.6 2.56-4.79 4.44-5.22c1.88-0.44 4.31 2.47 6.81 2.59 2.51 0.13 5.72-1.78 8.22-1.84 2.51-0.06 4.25 1.78 6.81 1.47 2.57-0.31 6.35-4.53 8.57-3.35s-0.57 8.2 4.78 10.44 21.62 4.68 27.31 3 6.39-7.47 6.84-13.06c0.46-5.6-1.24-16.43-4.09-20.53-2.85-4.11-8.61-3.79-13-4.1-1.09-0.07-2.22-0.15-3.37-0.15zm10.75 15.22c1.45-0.01 2.91 0.74 3.65 2 0.85 1.36 0.65 3.25-0.44 4.43-1.36 1.59-3.9 1.91-5.62 0.72-1.35-0.87-2.07-2.66-1.62-4.22 0.45-1.76 2.23-2.97 4.03-2.93z"/>
<g font-weight="bold" fill="#6fa8dc">
<text font-size="24px" y="38.492424" x="470">OpenID Authentication</text>
<text font-size="24px" y="429.96274" x="450.5">vs.</text>
<text font-size="24px" y="472.10791" x="484">Pseudo-Authentication using OAuth</text>
<text font-size="16px" y="821.69586" x="791.43469">adapted from a drawing by @_nat_en</text>
<text y="799.87012" x="155.72391"><tspan>*valet key = limited scope</tspan><tspan y="822.37012" x="155.72391">OAuth Token</tspan></text>
</g>
<text y="737.7276" x="855.33337" fill="#6fa8dc">&amp; the API Provider</text>
<g fill="#c27ba0">
<text font-size="19px" y="133.23027" x="257.12271"><tspan x="257.12271" y="133.23027">Who are YOU? Send me a</tspan><tspan x="257.12271" y="156.98027">notarized referral letter.</tspan></text>
<text y="544.87408" x="254.09418"><tspan y="544.87408" x="256.59027">Give me the valet key* to </tspan><tspan y="567.37408" x="256.59027">your house (account) so </tspan><tspan y="589.87408" x="256.59027"> that I know you are the </tspan><tspan y="612.37408" x="256.59027">owner of the house </tspan></text>
<text y="568.5119" x="646.04156"><tspan y="568.5119" x="646.04156">Please issue me a</tspan><tspan y="591.0119" x="646.04156">valet key* for the core APIs</tspan></text>
<text y="679.64172" x="259.23492"><tspan y="679.64172" x="259.23492">valet key*</tspan></text>
<text y="243.81717" x="259.31052"><tspan x="259.31052" y="243.81717">certificate</tspan></text>
<text y="133.51192" x="658"><tspan>Please write a referral</tspan><tspan y="156.01192" x="658">stating that I&apos;m user@gmail</tspan></text>
</g>
<g id="c">
<path d="m350.93 371.37c-4.066 0-7.3622-3.2962-7.3622-7.3622h7.3622c-2.033 0-3.6811-1.6481-3.6811-3.6811s1.6481-3.6811 3.6811-3.6811h-7.3622v-95.709c0-4.066-3.2962-7.3622-7.3622-7.3622h-134.05c-4.066 0-7.3622 3.2962-7.3622 7.3622s3.2962 7.3622 7.3622 7.3622h7.3622v95.709c0 4.066 3.2962 7.3622 7.3622 7.3622zm-22.09-110.43c0 4.066 3.2962 7.3622 7.3622 7.3622 2.033 0 3.6811-1.6481 3.6811-3.6811s-1.6481-3.6811-3.6811-3.6811z" fill="#cfe2f3"/>
<path d="m328.84 260.94c0 4.066 3.2962 7.3622 7.3622 7.3622 2.033 0 3.6811-1.6481 3.6811-3.6811s-1.6481-3.6811-3.6811-3.6811zm14.724 103.07c0 4.066 3.2962 7.3622 7.3622 7.3622s7.3622-3.2962 7.3622-7.3622-3.2962-7.3622-7.3622-7.3622c-2.033 0-3.6811 1.6481-3.6811 3.6811s1.6481 3.6811 3.6811 3.6811z" fill="#a5b4c2"/>
<path stroke="#000" stroke-width="2" d="m343.57 356.65v-95.709c0-4.066-3.2962-7.3622-7.3622-7.3622h-134.05c-4.066 0-7.3622 3.2962-7.3622 7.3622s3.2962 7.3622 7.3622 7.3622h7.3622v95.709c0 4.066 3.2962 7.3622 7.3622 7.3622h134.05c4.066 0 7.3622-3.2962 7.3622-7.3622s-3.2962-7.3622-7.3622-7.3622zm-7.3622-103.07c-4.066 0-7.3622 3.2962-7.3622 7.3622s3.2962 7.3622 7.3622 7.3622c2.033 0 3.6811-1.6481 3.6811-3.6811s-1.6481-3.6811-3.6811-3.6811h-7.3622m-119.32 7.3622h126.69m14.724 88.346c-2.033 0-3.6811 1.6481-3.6811 3.6811s1.6481 3.6811 3.6811 3.6811h-7.3622m7.3622 7.3622c-4.066 0-7.3622-3.2962-7.3622-7.3622v-7.3622" fill="none"/>
<text font-size="13px" y="305.18097" x="275.1" fill="#000"><tspan x="275.08386" y="305.18097">name: Real Name</tspan><tspan x="275.08386" y="321.43097">email: user@gmail</tspan><tspan x="275.08386" y="337.68097">notary: Google</tspan></text>
</g>
<use xlink:href="#c" transform="translate(369.84)" height="847" width="970" y="0" x="0"/>
</svg>